<?xml version="1.0" encoding="UTF-8"?><svg id="Capa_1" xmlns="http://www.w3.org/2000/svg" viewBox="0 0 565.13 546.96"><defs><style>.cls-1{font-family:SegoeScript, 'Segoe Script';font-size:73.6px;isolation:isolate;}.cls-1,.cls-2{fill:#1f7445;}.cls-3{fill:#63400e;}</style></defs><text class="cls-1" transform="translate(0 510.52) scale(1.04 1)"><tspan x="0" y="0">Smart Huerta</tspan></text><path id="Trazado_53" class="cls-2" d="M445.51,143.26c-.52-.76-2.98,1.85-5.71,4.33-4.98,4.18-10.37,7.9-16.09,11.09-9.1,5.36-19.13,9.1-29.61,11.04-12.19,2.18-22.17,.76-34.23-.84-4.14-.55-7.56-1.13-9.94-1.59-.33-2.96-.33-5.94,0-8.9,.36-2.98,1.07-5.91,2.13-8.73,3.06-8.76,4.59-13.19,6.4-17.17,2.3-5.57,5.2-10.89,8.65-15.87,5.16-6.8,11.93-12.33,19.75-16.12,4.07-2.23,8.34-4.13,12.75-5.67,8.01-3.07,11.95-3.74,19.83-6.09,7.01-1.96,13.87-4.4,20.52-7.31,10.08-4.22,19.17-10.37,26.71-18.06,11.33-10.84,19.36-24.44,23.21-39.35,1.69-6.47,2.78-13.08,3.26-19.74,.11-1.17,.56-2.29,1.29-3.24,1.06-1.17,2.87-1.38,4.18-.46,1.64,1.43,2.67,3.39,2.9,5.5,1.44,3.15,2.7,6.38,3.78,9.66,2.01,6.16,3.47,12.48,4.35,18.88,2.18,12.53,3.67,25.17,4.46,37.85,1.46,17.29,1.34,34.67-.36,51.94-3.18,31.11-14.63,60.91-33.27,86.54-5.31,7.54-11.64,14.36-18.82,20.29-10.52,8.4-23.18,13.96-36.69,16.08-10.78,2.18-19.95,4.03-32.26,.5-12.34-3.32-23.21-10.41-30.97-20.2-3.78-4.6-7.07-9.55-9.82-14.78-6.56-.16-13.11,.69-19.39,2.52-8.25,2.29-15.93,6.18-22.57,11.42-8.83,7.35-16.2,16.17-21.76,26.03-9.18,14.68-15.78,30.72-19.55,47.46-4.22,18.46-5.82,37.39-4.74,56.27l-19.79,.63c-.6-9.28-.64-18.59-.12-27.88,1.33-22.49,6.11-44.67,14.2-65.82,12.43-31.74,28.83-48.29,33.15-52.49,10.32-10.11,22.97-17.75,36.93-22.3,8.83-2.96,18-4.89,27.31-5.75,14-1.64,13.08,.35,27.07-1.05,0,0,25.54-2.6,41.35-12.93,2.71-1.84,5.32-3.82,7.82-5.93,3.63-2.79,6.81-6.07,9.45-9.74,2.53-3.82,4.87-9.07,4.26-9.95v-.08Z"/><path id="Trazado_54" class="cls-2" d="M161.82,211.28c.4-.21,1.49,1.64,2.7,3.48,2.36,3.31,4.95,6.45,7.76,9.41,4.61,5,9.83,9.45,15.57,13.23,6.24,3.88,12.94,7.02,19.95,9.37,2.49,.93,4.55,1.64,5.99,2.1,.61-1.24,1.03-2.55,1.25-3.9,.2-1.46,.2-2.95,0-4.41-.52-4.7-.8-7.06-1.29-9.32-.56-3.21-1.5-6.35-2.78-9.37-2.24-4.71-5.34-8.99-9.17-12.64-2.07-2.15-4.26-4.18-6.57-6.09-4.22-3.61-6.4-5-10.62-8.27-2.57-2.02-7-5.38-10.86-9.03-5.07-4.53-9.42-9.75-12.91-15.5-4.73-7.13-7.46-15.32-7.93-23.77-.1-3.2,.2-6.4,.89-9.53,.08-.61-.02-1.24-.28-1.81-.47-.84-1.38-1.37-2.37-1.4-1.04,.1-1.96,.7-2.45,1.59-1.26,.96-2.45,2.01-3.54,3.15-2.01,2.12-3.74,4.48-5.15,7.01-3.05,4.88-5.69,10-7.89,15.28-3.32,7.29-5.69,14.95-7.08,22.8-2.16,16.09,.29,32.43,7.08,47.28,2.1,5.01,4.79,9.77,8.03,14.19,5.16,6.88,11.59,12.79,18.98,17.43,5.51,4.25,11.84,7.43,18.61,9.36,6.76,2,13.99,2,20.76,0,2.75-.89,5.36-2.13,7.76-3.69,8.85,4.19,16.53,10.36,22.38,17.98,3.91,5.37,6.93,11.29,8.93,17.55,1.08,2.96,1.98,5.97,2.7,9.03,1.28,5.69,1.94,11.48,1.97,17.3,.16,5.63,.52,13.86,1.21,24.88l4.99,6.93c1.78-3.89,3.11-7.96,3.98-12.13,.56-2.77,2.25-11.88-1.25-32.04-2.86-16.33-4.26-24.53-9.54-33.09-4.87-7.67-11.03-14.5-18.22-20.24-4.7-3.8-9.72-7.23-15.01-10.24-7.89-4.7-7.64-3.57-15.53-8.15-8.16-4.8-15.61-10.65-22.13-17.38-1.65-1.89-3.46-4.49-3.7-4.79-1.66-2.13-3.04-4.45-4.09-6.92-.93-2.39-1.57-5.33-1.09-5.58l-.04-.08Z"/><path id="Trazado_55" class="cls-3" d="M56.76,401.96c-.48-2.86,32.95-18.48,69.08-29.14,20.64-6.02,41.75-10.43,63.13-13.19,23.21-3.19,41.19-3.74,77.2-4.79,34.11-1.01,54.47-.21,66.82,.46,12.43,.67,22.09,1.55,26.11,1.93,6.64,.63,31.26,3.02,64.28,9.2,40.83,7.6,82.5,18.64,82.26,21.16-.2,1.89-24.02-2.48-76.63-7.6-10.9-1.05-42.04-4.07-70.76-5.58-36.49-1.64-73.04-1.37-109.49,.8-15.29,.67-27.84,1.26-45.49,2.8-29.57,2.54-58.98,6.54-88.12,11.97-39.41,7.52-58.05,14.11-58.41,11.97h.04Z"/></svg>